<svg width="32" height="32" viewBox="0 0 32 32" fill="none" xmlns="http://www.w3.org/2000/svg">
<g filter="url(#filter0_d_43_19)">
<path d="M13.882 6.29619C13.8303 6.24449 13.7679 6.20476 13.6992 6.17978C13.6305 6.1548 13.5572 6.1452 13.4844 6.15163C13.4116 6.15807 13.341 6.18039 13.2778 6.21703C13.2145 6.25367 13.1601 6.30373 13.1183 6.36369C12.0636 7.86903 11.4984 9.66283 11.4996 11.5009C11.5005 11.8947 11.5268 12.2879 11.5784 12.6783L2.89011 24.5277C2.60573 24.9123 2.46931 25.3864 2.50581 25.8633C2.5423 26.3403 2.74926 26.7881 3.08885 27.125L4.875 28.9112C5.21187 29.2507 5.65973 29.4577 6.13666 29.4942C6.6136 29.5307 7.08773 29.3943 7.47235 29.1099L19.3229 20.4191C19.7128 20.4714 20.1057 20.4986 20.4991 20.5004C22.3365 20.5021 24.1298 19.9378 25.6351 18.8842C25.695 18.8424 25.7451 18.788 25.7817 18.7247C25.8184 18.6615 25.8407 18.5909 25.8471 18.5181C25.8536 18.4453 25.8439 18.372 25.819 18.3033C25.794 18.2346 25.7543 18.1722 25.7026 18.1205L13.882 6.29619ZM14.2082 19.2055L12.2083 21.2053C12.1164 21.3021 12.006 21.3795 11.8837 21.4329C11.7614 21.4864 11.6297 21.5148 11.4962 21.5165C11.3627 21.5182 11.2303 21.4932 11.1067 21.4429C10.983 21.3926 10.8707 21.3181 10.7763 21.2237C10.6819 21.1293 10.6074 21.017 10.5571 20.8934C10.5068 20.7697 10.4818 20.6373 10.4835 20.5038C10.4852 20.3704 10.5136 20.2386 10.5671 20.1163C10.6205 19.994 10.6979 19.8836 10.7947 19.7917L12.7945 17.7918C12.9836 17.6122 13.2353 17.5135 13.4961 17.5169C13.7568 17.5202 14.006 17.6253 14.1903 17.8097C14.3747 17.994 14.4798 18.2432 14.4831 18.5039C14.4865 18.7647 14.3878 19.0164 14.2082 19.2055ZM27.8824 16.6356C27.8406 16.6958 27.7861 16.746 27.7228 16.7828C27.6594 16.8196 27.5887 16.842 27.5158 16.8484C27.4428 16.8548 27.3693 16.8452 27.3005 16.8201C27.2316 16.7949 27.1692 16.755 27.1175 16.7031L15.2969 4.88252C15.245 4.83083 15.2051 4.76837 15.1799 4.69955C15.1548 4.63072 15.1452 4.55722 15.1516 4.48424C15.158 4.41127 15.1804 4.3406 15.2172 4.27723C15.254 4.21387 15.3042 4.15936 15.3644 4.11756C17.0958 2.90944 19.1971 2.34915 21.3002 2.53487C23.4032 2.72059 25.3738 3.64048 26.8667 5.13334C28.3595 6.6262 29.2794 8.59681 29.4651 10.6998C29.6509 12.8029 29.0906 14.9042 27.8824 16.6356Z" fill="url(#paint0_linear_43_19)"/>
</g>
<defs>
<filter id="filter0_d_43_19" x="2" y="2" width="28" height="28" filterUnits="userSpaceOnUse" color-interpolation-filters="sRGB">
<feFlood flood-opacity="0" result="BackgroundImageFix"/>
<feColorMatrix in="SourceAlpha" type="matrix" values="0 0 0 0 0 0 0 0 0 0 0 0 0 0 0 0 0 0 127 0" result="hardAlpha"/>
<feOffset/>
<feGaussianBlur stdDeviation="0.25"/>
<feComposite in2="hardAlpha" operator="out"/>
<feColorMatrix type="matrix" values="0 0 0 0 0 0 0 0 0 0 0 0 0 0 0 0 0 0 0.1 0"/>
<feBlend mode="normal" in2="BackgroundImageFix" result="effect1_dropShadow_43_19"/>
<feBlend mode="normal" in="SourceGraphic" in2="effect1_dropShadow_43_19" result="shape"/>
</filter>
<linearGradient id="paint0_linear_43_19" x1="-2.49818" y1="3.50122" x2="-2.49818" y2="30.5012" gradientUnits="userSpaceOnUse">
<stop offset="0.05" stop-color="#38EF7D"/>
<stop offset="0.95" stop-color="#11998E"/>
</linearGradient>
</defs>
</svg>
