<svg viewBox="0 0 24 24" fill="none" xmlns="http://www.w3.org/2000/svg">
  <path
    d="M2 4V20C2 21.1046 2.89543 22 4 22H20C21.1046 22 22 21.1046 22 20V4C22 2.89543 21.1046 2 20 2L4 2C2.89543 2 2 2.89543 2 4Z"
    stroke="currentColor" stroke-width="2" />
  <path
    d="M11.0076 10.79H9.07262V17.3H6.83762V10.79H5.60762V9.71L6.83762 9.11V8.51C6.83762 7.81 6.95262 7.27 7.18262 6.89C7.42262 6.5 7.75762 6.225 8.18762 6.065C8.62762 5.905 9.14262 5.825 9.73262 5.825C10.1726 5.825 10.5676 5.86 10.9176 5.93C11.2776 6 11.5676 6.08 11.7876 6.17L11.2176 7.805C11.0476 7.755 10.8626 7.71 10.6626 7.67C10.4626 7.62 10.2326 7.595 9.97262 7.595C9.66262 7.595 9.43262 7.69 9.28262 7.88C9.14262 8.07 9.07262 8.31 9.07262 8.6V9.11H11.0076V10.79ZM17.3034 17.3H15.0384V11.105C15.0384 10.935 15.0384 10.725 15.0384 10.475C15.0484 10.225 15.0584 9.965 15.0684 9.695C15.0784 9.425 15.0884 9.185 15.0984 8.975C15.0484 9.035 14.9384 9.145 14.7684 9.305C14.6084 9.455 14.4584 9.59 14.3184 9.71L13.0884 10.7L11.9934 9.335L15.4434 6.59H17.3034V17.3Z"
    fill="currentColor" />
</svg>