<svg viewBox="0 0 24 24" fill="none" xmlns="http://www.w3.org/2000/svg">
  <path
    d="M2 4V20C2 21.1046 2.89543 22 4 22H20C21.1046 22 22 21.1046 22 20V4C22 2.89543 21.1046 2 20 2L4 2C2.89543 2 2 2.89543 2 4Z"
    stroke="currentColor" stroke-width="2" />
  <path
    d="M10.8076 10.79H8.87262V17.3H6.63762V10.79H5.40762V9.71L6.63762 9.11V8.51C6.63762 7.81 6.75262 7.27 6.98262 6.89C7.22262 6.5 7.55762 6.225 7.98762 6.065C8.42762 5.905 8.94262 5.825 9.53262 5.825C9.97262 5.825 10.3676 5.86 10.7176 5.93C11.0776 6 11.3676 6.08 11.5876 6.17L11.0176 7.805C10.8476 7.755 10.6626 7.71 10.4626 7.67C10.2626 7.62 10.0326 7.595 9.77262 7.595C9.46262 7.595 9.23262 7.69 9.08262 7.88C8.94262 8.07 8.87262 8.31 8.87262 8.6V9.11H10.8076V10.79ZM18.9934 17.3H11.5084V15.725L14.1934 13.01C14.7334 12.45 15.1684 11.985 15.4984 11.615C15.8284 11.235 16.0684 10.895 16.2184 10.595C16.3684 10.285 16.4434 9.955 16.4434 9.605C16.4434 9.175 16.3234 8.855 16.0834 8.645C15.8534 8.435 15.5384 8.33 15.1384 8.33C14.7284 8.33 14.3284 8.425 13.9384 8.615C13.5484 8.805 13.1384 9.075 12.7084 9.425L11.4784 7.97C11.7884 7.7 12.1134 7.45 12.4534 7.22C12.8034 6.99 13.2034 6.805 13.6534 6.665C14.1134 6.515 14.6634 6.44 15.3034 6.44C16.0034 6.44 16.6034 6.57 17.1034 6.83C17.6134 7.08 18.0034 7.425 18.2734 7.865C18.5534 8.295 18.6934 8.785 18.6934 9.335C18.6934 9.785 18.6234 10.2 18.4834 10.58C18.3534 10.96 18.1584 11.33 17.8984 11.69C17.6484 12.04 17.3384 12.405 16.9684 12.785C16.5984 13.155 16.1784 13.56 15.7084 14L14.3284 15.29V15.395H18.9934V17.3Z"
    fill="currentColor" />
</svg>