<svg viewBox="0 0 24 24" fill="none" xmlns="http://www.w3.org/2000/svg">
<path d="M2 4V20C2 21.1046 2.89543 22 4 22H20C21.1046 22 22 21.1046 22 20V4C22 2.89543 21.1046 2 20 2H4C2.89543 2 2 2.89543 2 4Z" stroke="currentColor" stroke-width="2"/>
<path d="M19.2849 6.224V7.264C19.2849 7.55733 19.2529 7.79467 19.1889 7.976C19.1249 8.15733 19.0635 8.312 19.0049 8.44L14.9329 17.064C14.8262 17.2933 14.6689 17.488 14.4609 17.648C14.2529 17.8027 13.9782 17.88 13.6369 17.88H11.8289L15.9889 9.536C16.1009 9.30667 16.2209 9.10133 16.3489 8.92C16.4822 8.73867 16.6262 8.56533 16.7809 8.4H11.6529C11.5782 8.4 11.5062 8.38667 11.4369 8.36C11.3729 8.328 11.3142 8.288 11.2609 8.24C11.2129 8.18667 11.1729 8.128 11.1409 8.064C11.1089 7.99467 11.0929 7.92533 11.0929 7.856V6.224H19.2849Z" fill="currentColor"/>
<path d="M5.968 17.88V11.288L5.424 11.176C5.23733 11.1333 5.08533 11.0667 4.968 10.976C4.856 10.8853 4.8 10.752 4.8 10.576V9.6H5.968V9.128C5.968 8.65333 6.04267 8.224 6.192 7.84C6.34667 7.456 6.56533 7.128 6.848 6.856C7.136 6.584 7.48533 6.37333 7.896 6.224C8.30667 6.07467 8.77333 6 9.296 6C9.49867 6 9.68533 6.01333 9.856 6.04C10.032 6.06133 10.2133 6.09867 10.4 6.152L10.352 7.36C10.3467 7.44533 10.3227 7.51733 10.28 7.576C10.2427 7.62933 10.1947 7.67467 10.136 7.712C10.0773 7.744 10.0107 7.768 9.936 7.784C9.86667 7.8 9.79733 7.808 9.728 7.808C9.50933 7.808 9.31467 7.82933 9.144 7.872C8.97333 7.91467 8.82933 7.992 8.712 8.104C8.6 8.21067 8.51467 8.35467 8.456 8.536C8.39733 8.712 8.368 8.936 8.368 9.208V9.6H10.32V11.296H8.448V17.88H5.968Z" fill="currentColor"/>
</svg>
