<svg viewBox="0 0 24 24" fill="none" xmlns="http://www.w3.org/2000/svg">
  <circle cx="12" cy="12" r="10" stroke="currentColor" stroke-width="2" />
  <path
    d="M8.5 17.345V6.5H12.2425C12.9525 6.5 13.5575 6.5675 14.0575 6.7025C14.5625 6.8375 14.975 7.03 15.295 7.28C15.62 7.53 15.8575 7.8325 16.0075 8.1875C16.1575 8.5425 16.2325 8.9425 16.2325 9.3875C16.2325 9.6425 16.195 9.8875 16.12 10.1225C16.045 10.3525 15.9275 10.57 15.7675 10.775C15.6125 10.975 15.4125 11.1575 15.1675 11.3225C14.9275 11.4875 14.64 11.6275 14.305 11.7425C15.795 12.0775 16.54 12.8825 16.54 14.1575C16.54 14.6175 16.4525 15.0425 16.2775 15.4325C16.1025 15.8225 15.8475 16.16 15.5125 16.445C15.1775 16.725 14.765 16.945 14.275 17.105C13.785 17.265 13.225 17.345 12.595 17.345H8.5ZM10.5175 12.59V15.77H12.565C12.94 15.77 13.2525 15.725 13.5025 15.635C13.7575 15.545 13.96 15.425 14.11 15.275C14.265 15.125 14.375 14.95 14.44 14.75C14.51 14.55 14.545 14.3375 14.545 14.1125C14.545 13.8775 14.5075 13.6675 14.4325 13.4825C14.3575 13.2925 14.24 13.1325 14.08 13.0025C13.92 12.8675 13.715 12.765 13.465 12.695C13.215 12.625 12.9125 12.59 12.5575 12.59H10.5175ZM10.5175 11.195H12.13C12.815 11.195 13.335 11.07 13.69 10.82C14.045 10.57 14.2225 10.1725 14.2225 9.6275C14.2225 9.0625 14.0625 8.66 13.7425 8.42C13.4225 8.18 12.9225 8.06 12.2425 8.06H10.5175V11.195Z"
    fill="currentColor" />
</svg>