<svg viewBox="0 0 24 24" fill="none" xmlns="http://www.w3.org/2000/svg">
<path d="M12 22C17.5228 22 22 17.5228 22 12C22 6.47715 17.5228 2 12 2C6.47715 2 2 6.47715 2 12C2 17.5228 6.47715 22 12 22Z" stroke="currentColor" stroke-width="2"/>
<path d="M17 11.5V15.5C17 16.0523 16.5523 16.5 16 16.5H11C10.4477 16.5 10 16.0523 10 15.5V11.5C10 10.9477 10.4477 10.5 11 10.5H16C16.5523 10.5 17 10.9477 17 11.5Z" stroke="currentColor" stroke-width="2"/>
<path d="M13 7.5H8C7.44772 7.5 7 7.94772 7 8.5V12.5" stroke="currentColor" stroke-width="2" stroke-linecap="round"/>
</svg>
