<svg viewBox="0 0 24 24" fill="none" xmlns="http://www.w3.org/2000/svg">
  <circle cx="12" cy="12" r="10" stroke="currentColor" stroke-width="2" />
  <path
    d="M17.5825 16.845H16.0225C15.8475 16.845 15.7025 16.8025 15.5875 16.7175C15.4775 16.6275 15.3975 16.5175 15.3475 16.3875L14.5375 14.175H10.045L9.235 16.3875C9.195 16.5025 9.115 16.6075 8.995 16.7025C8.88 16.7975 8.7375 16.845 8.5675 16.845H7L11.26 6H13.3225L17.5825 16.845ZM10.5625 12.75H14.02L12.7 9.1425C12.64 8.9825 12.5725 8.795 12.4975 8.58C12.4275 8.36 12.3575 8.1225 12.2875 7.8675C12.2175 8.1225 12.1475 8.36 12.0775 8.58C12.0125 8.8 11.9475 8.9925 11.8825 9.1575L10.5625 12.75Z"
    fill="currentColor" />
</svg>