<svg viewBox="0 0 24 24" fill="none" xmlns="http://www.w3.org/2000/svg">
  <path
    d="M6.46576 19H19.9914C20.8843 19 21.6734 18.4083 21.8058 17.5252C22.2121 14.815 22.1538 10.6538 20.5 9C18 6.5 9.49999 4 6.49999 5C4.49015 5.66995 3.04134 7.55547 2.32976 8.83598C2.09714 9.25459 2.07931 9.75116 2.22352 10.2078L4.5586 17.6023C4.82135 18.4343 5.5932 19 6.46576 19Z"
    stroke="currentColor" stroke-width="2" />
  <path
    d="M8.0868 13.675V16.5H6.7418V9.27H8.9468C9.44013 9.27 9.8618 9.32167 10.2118 9.425C10.5651 9.525 10.8535 9.66667 11.0768 9.85C11.3035 10.0333 11.4685 10.2533 11.5718 10.51C11.6785 10.7633 11.7318 11.0433 11.7318 11.35C11.7318 11.5933 11.6951 11.8233 11.6218 12.04C11.5518 12.2567 11.4485 12.4533 11.3118 12.63C11.1785 12.8067 11.0118 12.9617 10.8118 13.095C10.6151 13.2283 10.3901 13.335 10.1368 13.415C10.3068 13.5117 10.4535 13.65 10.5768 13.83L12.3868 16.5H11.1768C11.0601 16.5 10.9601 16.4767 10.8768 16.43C10.7968 16.3833 10.7285 16.3167 10.6718 16.23L9.1518 13.915C9.09513 13.8283 9.0318 13.7667 8.9618 13.73C8.89513 13.6933 8.79513 13.675 8.6618 13.675H8.0868ZM8.0868 12.71H8.9268C9.18013 12.71 9.40013 12.6783 9.5868 12.615C9.7768 12.5517 9.9318 12.465 10.0518 12.355C10.1751 12.2417 10.2668 12.1083 10.3268 11.955C10.3868 11.8017 10.4168 11.6333 10.4168 11.45C10.4168 11.0833 10.2951 10.8017 10.0518 10.605C9.8118 10.4083 9.44346 10.31 8.9468 10.31H8.0868V12.71ZM13.2495 16.5V9.27H15.7445C16.2179 9.27 16.6212 9.315 16.9545 9.405C17.2912 9.495 17.5662 9.62333 17.7795 9.79C17.9962 9.95667 18.1545 10.1583 18.2545 10.395C18.3545 10.6317 18.4045 10.8983 18.4045 11.195C18.4045 11.365 18.3795 11.5283 18.3295 11.685C18.2795 11.8383 18.2012 11.9833 18.0945 12.12C17.9912 12.2533 17.8579 12.375 17.6945 12.485C17.5345 12.595 17.3429 12.6883 17.1195 12.765C18.1129 12.9883 18.6095 13.525 18.6095 14.375C18.6095 14.6817 18.5512 14.965 18.4345 15.225C18.3179 15.485 18.1479 15.71 17.9245 15.9C17.7012 16.0867 17.4262 16.2333 17.0995 16.34C16.7729 16.4467 16.3995 16.5 15.9795 16.5H13.2495ZM14.5945 13.33V15.45H15.9595C16.2095 15.45 16.4179 15.42 16.5845 15.36C16.7545 15.3 16.8895 15.22 16.9895 15.12C17.0929 15.02 17.1662 14.9033 17.2095 14.77C17.2562 14.6367 17.2795 14.495 17.2795 14.345C17.2795 14.1883 17.2545 14.0483 17.2045 13.925C17.1545 13.7983 17.0762 13.6917 16.9695 13.605C16.8629 13.515 16.7262 13.4467 16.5595 13.4C16.3929 13.3533 16.1912 13.33 15.9545 13.33H14.5945ZM14.5945 12.4H15.6695C16.1262 12.4 16.4729 12.3167 16.7095 12.15C16.9462 11.9833 17.0645 11.7183 17.0645 11.355C17.0645 10.9783 16.9579 10.71 16.7445 10.55C16.5312 10.39 16.1979 10.31 15.7445 10.31H14.5945V12.4Z"
    fill="currentColor" />
</svg>