<svg viewBox="0 0 24 24" fill="none" xmlns="http://www.w3.org/2000/svg">
<path d="M6.96387 4.5H18.608C19.4446 4.5 20.2061 5.02016 20.4286 5.8267C22.5682 13.5816 17.7868 19.5 14 19.5H4.52615C3.46877 19.5 2.79275 18.2615 3.21957 17.2941C4.6303 14.0966 5.47122 9.62063 5.28842 6.43836C5.23169 5.45093 5.97481 4.5 6.96387 4.5Z" stroke="currentColor" stroke-width="2" stroke-miterlimit="1.01703" stroke-linecap="round" stroke-linejoin="round"/>
<path d="M8.79 12.805V15.5H7.1V8.215H9.47C9.99667 8.215 10.445 8.27 10.815 8.38C11.1883 8.48667 11.4917 8.63667 11.725 8.83C11.9617 9.02333 12.1333 9.25167 12.24 9.515C12.3467 9.77833 12.4 10.065 12.4 10.375C12.4 10.6117 12.3683 10.835 12.305 11.045C12.2417 11.255 12.1467 11.45 12.02 11.63C11.8967 11.8067 11.7433 11.965 11.56 12.105C11.38 12.245 11.1717 12.36 10.935 12.45C11.0483 12.5067 11.1533 12.5767 11.25 12.66C11.35 12.7433 11.4367 12.845 11.51 12.965L13.06 15.5H11.53C11.2467 15.5 11.0433 15.3933 10.92 15.18L9.71 13.065C9.65667 12.9717 9.59333 12.905 9.52 12.865C9.45 12.825 9.35 12.805 9.22 12.805H8.79ZM8.79 11.64H9.47C9.7 11.64 9.895 11.6117 10.055 11.555C10.2183 11.495 10.3517 11.4133 10.455 11.31C10.5583 11.2067 10.6333 11.0867 10.68 10.95C10.7267 10.81 10.75 10.66 10.75 10.5C10.75 10.18 10.645 9.93 10.435 9.75C10.2283 9.57 9.90667 9.48 9.47 9.48H8.79V11.64ZM18.7377 8.215V9.555H16.6877V15.5H14.9977V9.555H12.9477V8.215H18.7377Z" fill="currentColor"/>
</svg>
