<svg viewBox="0 0 24 24" fill="none" xmlns="http://www.w3.org/2000/svg">
  <path
    d="M14 2H10C9.44772 2 9 2.44772 9 3V8C9 8.55228 8.55228 9 8 9H3.5C2.94772 9 2.5 9.44772 2.5 10V14C2.5 14.5523 2.94772 15 3.5 15H8C8.55228 15 9 15.4477 9 16V21C9 21.5523 9.44772 22 10 22H14C14.5523 22 15 21.5523 15 21V16C15 15.4477 15.4477 15 16 15H21C21.5523 15 22 14.5523 22 14V10C22 9.44772 21.5523 9 21 9H16C15.4477 9 15 8.55228 15 8V3C15 2.44772 14.5523 2 14 2Z"
    stroke="currentColor" stroke-width="2" />
</svg>