<svg viewBox="0 0 24 24" fill="none" xmlns="http://www.w3.org/2000/svg">
  <path
    d="M17.5342 19H4.00861C3.11565 19 2.32658 18.4083 2.19418 17.5252C1.78785 14.815 1.84616 10.6538 3.50001 9C6 6.5 14.5 4 17.5 5C19.5099 5.66995 20.9587 7.55547 21.6702 8.83598C21.9029 9.25459 21.9207 9.75116 21.7765 10.2078L19.4414 17.6023C19.1786 18.4343 18.4068 19 17.5342 19Z"
    stroke="currentColor" stroke-width="2" />
  <path
    d="M7.73516 15.39H10.6302V16.5H6.39016V9.27H7.73516V15.39ZM11.5562 16.5V9.27H14.0512C14.5245 9.27 14.9278 9.315 15.2612 9.405C15.5978 9.495 15.8728 9.62333 16.0862 9.79C16.3028 9.95667 16.4612 10.1583 16.5612 10.395C16.6612 10.6317 16.7112 10.8983 16.7112 11.195C16.7112 11.365 16.6862 11.5283 16.6362 11.685C16.5862 11.8383 16.5078 11.9833 16.4012 12.12C16.2978 12.2533 16.1645 12.375 16.0012 12.485C15.8412 12.595 15.6495 12.6883 15.4262 12.765C16.4195 12.9883 16.9162 13.525 16.9162 14.375C16.9162 14.6817 16.8578 14.965 16.7412 15.225C16.6245 15.485 16.4545 15.71 16.2312 15.9C16.0078 16.0867 15.7328 16.2333 15.4062 16.34C15.0795 16.4467 14.7062 16.5 14.2862 16.5H11.5562ZM12.9012 13.33V15.45H14.2662C14.5162 15.45 14.7245 15.42 14.8912 15.36C15.0612 15.3 15.1962 15.22 15.2962 15.12C15.3995 15.02 15.4728 14.9033 15.5162 14.77C15.5628 14.6367 15.5862 14.495 15.5862 14.345C15.5862 14.1883 15.5612 14.0483 15.5112 13.925C15.4612 13.7983 15.3828 13.6917 15.2762 13.605C15.1695 13.515 15.0328 13.4467 14.8662 13.4C14.6995 13.3533 14.4978 13.33 14.2612 13.33H12.9012ZM12.9012 12.4H13.9762C14.4328 12.4 14.7795 12.3167 15.0162 12.15C15.2528 11.9833 15.3712 11.7183 15.3712 11.355C15.3712 10.9783 15.2645 10.71 15.0512 10.55C14.8378 10.39 14.5045 10.31 14.0512 10.31H12.9012V12.4Z"
    fill="currentColor" />
</svg>