<svg viewBox="0 0 24 24" fill="none" xmlns="http://www.w3.org/2000/svg">
  <circle cx="12" cy="12" r="10" stroke="currentColor" stroke-width="2" />
  <path
    d="M12.97 14.13V18.345H10.9525V14.13L7 7.5H8.7775C8.9525 7.5 9.09 7.5425 9.19 7.6275C9.295 7.7125 9.3825 7.82 9.4525 7.95L11.44 11.5725C11.555 11.7875 11.655 11.9925 11.74 12.1875C11.825 12.3775 11.9025 12.565 11.9725 12.75C12.0375 12.56 12.11 12.37 12.19 12.18C12.275 11.985 12.375 11.7825 12.49 11.5725L14.4625 7.95C14.5175 7.84 14.6 7.7375 14.71 7.6425C14.82 7.5475 14.96 7.5 15.13 7.5H16.915L12.97 14.13Z"
    fill="currentColor" />
</svg>