<svg viewBox="0 0 24 24" fill="none" xmlns="http://www.w3.org/2000/svg">
  <circle cx="12" cy="12" r="10" stroke="currentColor" stroke-width="2" />
  <path
    d="M10.6075 11.765L7.15 6.5H9.16C9.3 6.5 9.4 6.52 9.46 6.56C9.525 6.595 9.5825 6.655 9.6325 6.74L12.1 10.7225C12.125 10.6575 12.1525 10.595 12.1825 10.535C12.2125 10.47 12.2475 10.405 12.2875 10.34L14.545 6.7775C14.655 6.5925 14.7975 6.5 14.9725 6.5H16.9075L13.4125 11.6825L17.005 17.345H14.9875C14.8525 17.345 14.7425 17.31 14.6575 17.24C14.5775 17.17 14.51 17.09 14.455 17L11.9425 12.845C11.9225 12.905 11.9 12.9625 11.875 13.0175C11.85 13.0675 11.825 13.115 11.8 13.16L9.3925 17C9.3375 17.085 9.27 17.165 9.19 17.24C9.11 17.31 9.01 17.345 8.89 17.345H7L10.6075 11.765Z"
    fill="currentColor" />
</svg>